<?xml version="1.0" encoding="utf-8"?>
<!-- Generator: Adobe Illustrator 25.0.0, SVG Export Plug-In . SVG Version: 6.00 Build 0)  -->
<svg version="1.1" xmlns="http://www.w3.org/2000/svg" xmlns:xlink="http://www.w3.org/1999/xlink" x="0px" y="0px"
	 viewBox="0 0 687.8 523.9" style="enable-background:new 0 0 687.8 523.9;" xml:space="preserve">
<g id="Map">
	<polygon id="OH" points="494.6,219.1 490.9,219.1 490.1,218.6 483.2,217.5 480.7,214.9 466.5,215 466.5,251.3 
		476.3,255.6 478.9,258 481.6,258.4 486.9,260 488.8,262.1 492.1,258.9 494.5,254.9 494.5,254.9 497.4,255.8 497.9,255.5 
		500.4,250.4 500.9,250 504.5,248.6 506.8,244.9 508.5,241.2 509.4,233.8 509.4,233.8 512.8,229.2 512.8,210.2 511.1,210.7 
		503.8,214.7 494.6,219.1 	"/>
	<polygon id="IL" points="433.9,205.7 406.9,205.9 405.9,216 405.9,216 402.8,216.6 402.3,216.9 401.2,221.8 
		396.2,234.3 396.8,240.5 405,250.6 405,250.6 410.3,267.1 412.4,268.8 414.9,274.2 420.4,279.8 421.4,278.3 421.4,278.3 425,279 
		425.4,278.7 426.7,274.9 428.9,275 432.3,268.7 432.3,268.7 432.3,268.7 432.9,265.2 435.5,260.6 436.3,253.9 438.5,245 
		438.6,216.7 438.5,216.7 438.5,216.7 435.3,214 435.3,214 434.4,207.5 	"/>
	<polygon id="WI" points="436,164.6 435,162.1 434,156.3 431.9,154.1 427.3,152 426.7,151.9 415.3,147.1 415.3,147.1 
		415.3,147.1 415.3,147.1 415.3,147.1 410.9,141.2 402.2,140.8 402.2,140.8 401.9,140.4 401.9,140.3 403.1,135.6 402.6,135.4 
		391.5,140.2 391.5,140.2 388.7,139.8 387.4,142 386.9,147.4 386.9,147.4 383.3,152.4 381.6,162.4 382.4,170.9 392.1,181.1 
		395.8,183.1 398.9,187.2 398.9,187.2 398.9,187.2 398.9,187.2 399.3,190.2 399.3,190.2 399.3,190.2 399.3,190.2 400.4,199.6 
		404,203.6 406.9,205.9 433.9,205.7 432.8,199.6 433.3,192.3 434.4,187 442.9,165.9 442.5,165.6 440.1,167.8 434.1,175 432.1,176.5 
		432.1,176.5 432.7,171.6 432.7,171.6 437.1,165.7 	"/>
	<polygon id="MA" points="608.4,201.3 595.9,201.2 590,201.1 589,204.2 587.9,210.3 608.5,210.6 609.7,211.4 
		609.7,211.4 610.7,214.9 612.2,218.3 612.2,218.3 612.2,218.3 615.9,217.2 617.7,217.5 621.7,216 623.4,210.8 623.2,210.4 
		622.7,210.4 621.2,213.4 621.2,213.4 620.8,213.7 619.6,213.7 619.1,213.4 616,207.6 615.5,207.2 613.7,207.2 613.4,206.9 
		614.5,203.9 616.2,203 614.7,200.3 608.4,201.3 	"/>
	<polygon id="VT" points="588.5,167.9 588.5,167.9 588.2,173.7 587.3,177.1 587.5,181.6 587.3,184.1 588,188.5 
		587.9,190.2 589.7,195.3 589.9,197.2 590,201.1 595.9,201.2 597.1,195.5 597.6,194.6 598.8,188.3 601.6,182.4 602.9,177.3 
		605.2,174.9 607,170.1 607.2,167.9 588.5,167.9 588.5,167.9 	"/>
	<polygon id="RI" points="604.2,210.6 603.9,221.6 606.2,221.4 608.6,220 609,217.3 609.7,216.7 611.2,218.6 
		612.2,218.3 612.2,218.3 610.7,215 609.7,211.4 608.5,210.6 	"/>
	<polygon id="NH" points="605.2,174.9 602.9,177.3 601.6,182.4 598.8,188.3 597.6,194.6 597.1,195.5 595.9,201.2 
		608.4,201.3 614.7,200.3 615.8,196.8 613.6,195.1 613.7,163.9 611.6,163.1 610.7,164 610.1,164 608.4,164.8 607.4,166.9 607,170.1 
		607,170.1 	"/>
	<polygon id="CT" points="604.2,210.6 587.9,210.3 587.5,214.5 587.7,217.3 587,221.7 587.5,222.8 585.3,224.5 
		585.8,225.4 589.5,224.4 591.8,222.6 599.7,221.5 603.9,221.6 	"/>
	<polygon id="DE" points="561.8,244.3 563.3,260.7 570.2,261 570.3,255.6 566.7,253.1 566.1,248.6 565.2,245.4 
		565.8,242.6 	"/>
	<polygon id="PA" points="512.8,229.2 512.8,244 561.8,244.3 565.8,242.6 570.3,237.9 567.6,231.2 567.6,231.2 
		573.2,220.4 572.5,219.6 566.8,210.9 520.9,210.5 520.9,210.5 520.6,210.2 520.6,206.6 512.8,210.2 512.8,229.2 	"/>
	<polygon id="MD" points="566.6,263.5 567.1,263.5 567.4,264.3 567.4,264.3 567,268.3 567.5,268.4 567.9,268.1 
		569.1,264.9 569.5,262.3 570.2,261 563.3,260.7 563.3,260.7 561.8,244.3 524.3,244.1 524.2,250.1 531.3,247.6 537.2,247.2 
		537.2,247.2 540.8,248.7 543.1,250 542.3,251.7 546.6,253.5 547.4,252.9 548.7,254.1 547.3,255.2 547.3,255.2 547.3,255.2 
		547.3,255.2 548.4,257.5 545.6,260.9 549.3,263.5 550.3,263.7 554,265.5 554.5,265.1 553.9,263.3 553.9,263.3 554.1,262.8 
		553.5,257 553.5,257 556.1,247.6 556.3,247.2 556.3,247.2 558.3,246.6 559.8,246.3 559.7,247.7 558.3,249.7 558.5,250.2 559,250.3 
		559,250.3 559.3,250.6 559.3,250.6 557.2,256.4 557.4,256.9 558.7,257.7 558.9,258.5 558.7,259 558.9,263.9 559.2,264.4 
		560.7,264.6 561.2,265 561.2,265 561.4,266.5 561.7,266.8 562.8,268.7 562.9,268.7 565.1,268.3 565.6,265.8 565.6,265.8 	"/>
	<polygon id="NC" points="497.4,289.6 495.1,292.6 492.4,294.1 489,295.2 484.8,299.2 477.9,302.2 472.9,307.6 
		485.6,307.5 488.7,306.4 488.7,306.4 489.9,306.6 491.4,305.7 492.5,305.3 504.4,305.3 505.3,305.9 507,305.6 508.2,307.3 
		509.1,309.8 510.2,310.2 521.5,310.2 522.6,310.6 532.3,321.8 539.3,317.9 543.7,313.9 552.8,311 553.8,308.5 550.5,309.1 
		550.5,309.1 550.2,308.7 550.2,308.6 550.3,308.1 550.3,308.1 553.8,304.5 553.8,304.4 547.3,301.6 547.3,301 547.3,301 
		551.4,301.5 552,301.7 555.8,301.6 556.3,301.4 556.8,301.6 556.8,301.6 557.9,303 558,303 559.4,301.7 562.1,300.7 562.2,298.4 
		561.7,298.2 560.5,298.9 559.9,298.9 559.9,298.9 559.2,296.5 559,296 555.5,295.2 552.5,294.2 556.4,292.6 557.7,291.4 
		558.7,290.9 561.1,292.2 561.1,292.2 561.3,292.7 561.7,293 562.9,294.9 563.4,294.7 563.7,294.2 561.4,287.8 498,287.8 	"/>
	<polygon id="SC" points="510.2,310.2 510.2,310.2 509.1,309.8 509.1,309.8 508.2,307.4 507,305.7 505.3,305.9 
		504.4,305.3 492.5,305.3 491.4,305.7 489.9,306.6 488.7,306.4 485.6,307.6 482.5,307.7 482.5,307.7 482.5,307.7 482.3,310.2 
		504,334.8 504,334.8 506.3,344.5 507.9,344.5 510.4,341.9 532.3,321.8 522.6,310.7 521.5,310.2 	"/>
	<polygon id="ME" points="645.5,132.6 644,131.7 642.3,130.4 639.4,131.6 637,133.1 635.3,132.3 635.4,128.8 
		632.7,128.2 621,148.7 621.2,151 618.8,157.1 615.8,161.9 613.7,163.9 613.6,195.1 615.8,196.8 617.2,193.9 619.8,191.1 
		621.2,188.5 625.1,186.1 631.4,184.5 634.2,180.1 634.2,179.5 635.4,175.9 635.9,175.8 635.9,175.8 638.3,178.1 638.9,178 
		640.9,175.2 641.5,175.2 642.5,176.5 647.7,175.7 653.3,171.4 654.3,168.1 654.1,165.8 650.4,162.4 649.4,159.8 647.4,157.4 
		647.4,157.4 647.6,134.6 	"/>
	<polygon id="NJ" points="578.3,233.6 580.3,228.8 580.7,229.4 581.5,229 582.2,225.9 573.2,220.4 567.6,231.2 
		570.3,237.9 565.8,242.6 565.2,245.4 566,247.6 566.8,248.8 569.5,249.7 571.6,250.7 571.3,252.4 572.2,253.2 573.9,250.1 
		577.8,245.1 577.2,244.4 579.2,243.4 579.7,241.1 580.7,241.7 581,234.3 	"/>
	<polygon id="FL" points="493.1,363.7 493.1,363.7 493.1,363.7 493.1,363.7 491.2,362.4 466,362.3 465.5,362.1 
		462.6,358.3 437.2,358.7 438.5,364.2 440.3,364 442.8,365.1 451.3,364.9 454.1,366.2 461,369.4 462.8,372.2 471.8,370 473.4,368.1 
		473.4,368.1 474,368.2 474,368.2 478.6,372.8 480.7,374.4 485.2,381.6 486.2,383.9 486.5,397.3 487,397.3 488.9,394.8 488.9,394.8 
		489.4,394.9 488.8,401.7 490.7,407.9 495.5,411.3 497.7,414.9 497.7,415.8 501,420.4 506.5,423.5 507,423.9 507.1,424.8 
		508.5,426.2 508.5,426.2 508.4,426.8 508.4,426.8 508,427.9 508.4,428.7 512.9,428 514.2,424.4 514.5,425.2 515.3,425.6 
		515.9,424.9 515.7,406.4 515.5,405.8 511.5,399.2 508.6,388.4 508.6,388.4 514.5,401.1 516.2,403.1 516.7,401.5 513,393.3 
		512,389.4 509.9,384.2 504.5,376.3 501.8,371.1 501.7,363.2 501.7,363.2 496.4,360.4 	"/>
	<polygon id="ID" points="125.5,151.1 125.5,151.1 127.9,153.6 130,153.9 130.3,157.4 130.3,157.4 130.3,157.4 
		130.3,157.4 125.7,170.6 124.9,177.1 125,210.9 189.1,211.1 189.1,170.2 186.2,170.3 181.4,173.4 170.5,173.6 167.8,172 
		163.7,170.5 163.7,170.5 162.7,166.6 158,157.1 153.5,155.7 153.5,155.7 153.1,155.2 153.1,155.2 153.6,151.8 153.4,151.3 
		153.4,151.3 153.8,147.8 152,141.5 149.4,139.1 138.9,126.1 138.9,126.1 137.2,121.3 135.9,120 135.1,104.3 125.1,104.2 
		125.5,151.1 	"/>
	<polygon id="WA" points="65.5,107 67.3,110.3 68,112.4 67.9,115 69.6,121.1 69.6,121.1 67.1,128.8 66.8,129.3 
		64.6,131.7 64.2,131.3 64.2,131.3 64.8,127.6 64.3,121.9 63,119.5 50.7,115.8 50.7,115.8 44.1,113.8 43.8,114.1 43.6,116.7 
		46,123.8 47.6,127.4 48.2,130.2 49.2,133 49.5,133.5 52.3,134.4 50.1,135.4 49.5,135.7 49.4,136.2 49.6,137 49.8,137.6 52.6,140.8 
		50.1,143.8 49.8,144.3 51.2,145.9 58.2,147.1 58.2,147.1 61.2,150.8 61.4,155.2 91,155.1 94.1,153.7 99.5,153.2 106.2,151.5 
		125.7,151.3 125.7,151.3 125.1,104.2 64.6,103.9 	"/>
	<polygon id="OR" points="124.9,203.8 124.9,177.1 125.7,170.6 130.3,157.4 130,154 127.9,153.6 127.9,153.6 
		125.7,151.4 106.2,151.5 99.5,153.2 94.1,153.7 91,155.1 61.4,155.2 61.2,150.8 53.7,148.5 53.2,148.9 51.7,155.3 51.8,167.4 
		47.6,193.5 47.3,205.6 49,210.6 49,210.6 124.9,210.9 	"/>
	<polygon id="GA" points="498.7,328.9 482.3,310.2 482.5,307.7 457.5,307.7 457.5,307.9 463.8,340.1 463.9,342.1 
		463.9,342.1 463.9,342.1 462.6,347.2 462.4,352.4 462.9,355.3 462.9,358.3 462.9,358.3 462.9,358.3 462.9,358.3 462.9,358.3 
		465.5,362.1 466,362.3 491.2,362.4 493.1,363.7 496.4,360.4 496.4,360.4 501.7,363.2 501.7,363.2 503.4,351 504,350.1 504.8,346.9 
		506.3,344.5 504,334.8 	"/>
	<polygon id="AL" points="437.1,358.7 437.1,358.7 462.6,358.3 462.6,358.3 462.8,358.3 462.9,358.3 462.9,358.3 
		462.9,355.3 462.4,352.4 462.4,352.4 462.6,351.5 462.6,347.2 463.9,342.1 463.8,340.1 457.5,307.9 457.5,307.9 457.5,307.7 
		431.1,307.7 431.1,307.9 431.1,307.9 431.1,307.9 426.6,349.1 427.2,365.9 430.4,366 431.1,361.8 432.5,362.4 433.1,365.6 
		438.5,364.2 437.1,358.7 	"/>
	<polygon id="MS" points="426.6,349.1 431.1,307.9 431.1,307.7 408.4,307.7 403.4,314.8 399,324.5 399.3,328.7 
		399.3,328.7 399.3,328.7 399.1,331.3 398.4,333.1 398.3,333.6 399.2,340.1 399.2,341.9 398,346 395.7,351 395.5,354.2 393.9,357.8 
		394.3,358.4 412.5,358.3 414.9,365.2 424.8,365.5 427.2,365.9 	"/>
	<polygon id="CA" points="148.4,335.8 149.5,330.8 149.3,328.7 149.3,328.7 151.8,323.7 152.8,316.7 150.5,307.4 
		150.5,307.4 94.5,253.6 94.5,253.6 94.3,253 94.5,210.8 49,210.6 50,216.6 50,216.6 48.9,230.9 54.4,245.3 55.2,251.6 58.2,257.4 
		61.8,262.1 62.2,263.1 64.5,267 65.7,267.5 67.3,265.4 67.9,265.2 67.9,265.2 69,265.4 69,265.4 68.3,269 70.9,272.5 70.9,272.5 
		70.5,272.9 70.5,272.9 67.3,271.3 67.1,271.8 70.6,278 72.6,278.9 72.6,278.9 74.3,282.9 74.3,282.9 71.6,283.8 71.4,284.1 
		73.1,287.3 77.2,292.4 84.7,302.9 86.7,307.6 87.8,311.1 107.2,319.2 107.2,319.2 117.5,328.4 123.8,337.6 	"/>
	<polygon id="OK" points="362.4,323.9 364.3,325.5 364.1,295 364.1,295 361.8,287.4 361.8,287.4 361.8,280 272.7,279.6 
		272.7,287.2 303.7,287.6 304.1,313 306.8,314.1 309.8,315.7 312.8,315.8 314.6,316.9 324.8,318.8 327.6,321.5 332.7,321.7 
		334.5,322.2 339.6,321.9 344,323.2 350.7,321 354.6,320.9 	"/>
	<polygon points="546.6,253.5 547.3,255.2 547.3,255.2 548.7,254.1 547.4,252.9 	"/>
	<polygon id="NV" points="157.4,281.2 157.4,279 157.4,279 157.4,279 157.4,279 157.4,279 157.4,279 157.5,211 
		94.5,210.8 94.3,253 94.5,253.6 150.5,307.2 150.6,301.9 150.1,295.5 150.9,290.2 150.9,290.2 151.4,290 151.4,290 151.4,290 
		154.6,292.2 157,286.1 157.4,284.2 	"/>
	<polygon id="KY" points="420.4,279.8 420.4,279.8 419.3,282.7 416.9,286 416.8,287.2 480.3,287.7 480.3,287.5 
		480.3,287.5 488.7,277.9 490.7,277 493.6,274 493.6,273.9 493.6,273.9 493.6,273.9 493.3,272.4 492.6,270.5 492.3,268.5 
		488.8,262.1 486.9,260 481.6,258.4 478.9,258 476.3,255.6 466.5,251.3 466.4,251.3 465,252.4 464.6,254.2 465,254.5 465,254.5 
		463.9,258 463.3,258.3 460.6,256.9 459,259.3 456.6,262.8 449.3,266.7 449.3,266.7 446.7,266.1 444.6,268.7 444.6,268.7 444,268.5 
		444,268.5 444,268.5 442.4,267 438.5,268.4 438.5,268.4 436.4,266.9 432.3,268.7 428.9,275 426.7,274.9 425.4,278.7 425.4,278.7 
		425,279 421.4,278.3 420.4,279.8 	"/>
	<polygon id="IA" points="399.2,190.2 343.3,190.1 342,200 342.1,202.4 343,205.5 345.8,211.8 348,219.6 348,219.6 
		348,219.6 348,219.6 348.6,228.8 349.2,231.6 391.6,231.7 394.8,233.9 396.2,234.3 401.2,221.8 402.3,216.9 402.3,216.9 
		402.8,216.6 405.9,216 406.9,205.9 404,203.6 400.4,199.7 400.4,199.7 	"/>
	<polygon id="MO" points="396.8,240.5 396.2,234.3 396.2,234.3 394.8,233.9 391.6,231.7 349.2,231.6 353.1,239.9 
		355.7,242.1 356.9,243.4 358.2,244.4 359.7,246.6 361,247.5 361.7,248.2 361.8,280 361.8,280 361.8,287.4 409.4,287.5 409.4,287.5 
		407.6,294.2 413.7,294.4 416.8,287.2 416.9,286 419.3,282.7 420.4,279.8 414.9,274.2 412.4,268.8 410.3,267.1 410.3,267.1 
		405,250.6 	"/>
	<polygon id="NE" points="343,205.5 342.1,202.4 342.1,202.4 340.2,202.1 333.6,197.5 330.5,198.6 325.6,199.2 
		325.6,199.2 321.9,197 262.8,196.5 262.7,225.7 281.7,225.8 282,239.8 353.1,239.9 349.2,231.6 349.2,231.6 349.2,231.6 
		348.6,228.8 348,219.6 345.8,211.8 	"/>
	<g id="VA">
		<polygon points="562.9,268.7 562.8,268.7 562.4,270.3 560.7,274.7 561.2,278.2 561.8,278.2 563.8,274.1 565.1,268.3 
					"/>
		<polygon points="560.4,283.1 555.4,282.8 551,279.9 549.3,278.3 549.6,277.8 549.6,277.8 554.1,279.5 554.4,279.1 
			551.8,275.8 552,275.2 552.5,275 555.3,276.9 555.9,272.8 555.7,272.2 544.7,262.5 544.7,262.5 544.9,261.4 544.9,261.4 
			545.6,260.9 548.4,257.5 547.3,255.2 546.6,253.5 542.3,251.8 543.1,250 540.8,248.7 540.6,248.6 539.1,252.1 534.9,249.4 
			532.1,254.4 532.1,254.4 532.1,254.4 528.2,257.1 524.1,261.1 524,261.1 521.6,259.4 521.5,259.4 517.4,265.2 514.6,268.1 
			513.6,272.5 513.6,272.5 510.4,274.5 504.5,277.1 500.9,277.3 497.9,276.8 493.6,274 493.6,274 493.6,274 493.6,274 493.4,274.2 
			490.7,277 488.7,277.9 480.3,287.5 480.3,287.7 561.4,287.8 		"/>
	</g>
	<polygon id="UT" points="157.4,279 209.8,279.2 210,225.6 189.5,225.5 189.5,225.5 189.1,225.2 189.1,211.1 157.5,211 
			"/>
	<polygon id="CO" points="281.9,279.5 282,239.9 282,239.9 281.7,225.8 210,225.6 210,225.6 210,225.6 209.8,279.2 
		281.9,279.6 	"/>
	<polygon id="WY" points="189.5,225.5 189.5,225.5 189.5,225.5 262.7,225.7 262.8,196.5 262.8,196.5 262.8,168.2 
		189.1,168.3 189.1,170.2 189.1,170.2 189.2,225.2 	"/>
	<polygon id="SD" points="263.4,196.5 321.9,197 325.6,199.1 330.4,198.6 333.6,197.5 333.6,197.5 340.2,202.1 
		342.1,202.4 342,200 343.3,190.1 340.8,160.1 339.9,156.2 339.9,156.2 340.5,153.4 262.9,153 262.9,168.2 262.9,168.2 262.8,196.5 
			"/>
	<polygon id="KS" points="282,239.9 281.9,279.6 361.8,280 361.7,248.2 361,247.5 359.7,246.6 358.2,244.4 356.9,243.4 
		355.7,242.1 353.1,239.9 	"/>
	<polygon id="AZ" points="192.4,279.1 157.4,279 157.4,284.2 157.4,284.2 157.4,284.2 157,286.1 154.6,292.2 
		154.6,292.2 154.6,292.2 154.6,292.2 151.4,290 150.9,290.2 150.1,295.5 150.6,301.9 150.5,307.4 152.8,316.7 152.8,316.7 
		151.8,323.8 149.3,328.7 149.5,330.8 149.5,330.8 148.4,335.8 187.8,354.8 188.4,354.9 209.5,354.9 209.8,279.2 	"/>
	<polygon id="TX" points="369.6,350.7 367.2,343.4 367.1,327 364.3,325.5 364.3,325.5 364.3,325.5 362.4,323.9 
		354.6,320.9 350.7,321.1 344,323.2 344,323.2 339.6,321.9 334.5,322.2 332.7,321.7 327.6,321.5 324.8,318.8 314.6,316.9 
		314.6,316.9 314.6,316.9 312.8,315.8 309.8,315.7 306.8,314.1 304.1,313 303.7,287.6 271.8,287.2 270.8,344.1 234.9,344.3 
		235,347.8 235,347.8 235,347.8 238.6,349.3 244.6,356.4 245.8,357.1 253.3,368.7 255.7,373.4 264,379.9 270.8,381.1 271.3,380.8 
		273.6,374.8 276.9,371.8 280.9,371.7 294.4,376.7 296.3,378.8 299.8,386 300.5,388 304.6,393.8 309.1,398.6 311.6,402.6 
		313.9,407.7 321.6,414.2 332.3,418 332.4,417.7 331.2,412.2 331.2,412.2 331.6,408.4 330.7,402 330.7,402 332.3,397 332.2,395.4 
		333.5,393.3 333.5,393.3 336.2,392 338.4,389.5 343.1,385.7 343.7,385.8 343.7,385.8 343,388.9 343.3,389.3 349.3,385.7 
		354.3,381.1 357.6,376.1 357.6,376.1 364.3,373.3 369.4,372.1 371.7,359.3 371.5,354.1 	"/>
	<polygon id="NM" points="234.9,344.3 270.8,344.1 271.8,287.2 272.7,287.2 272.7,279.6 209.8,279.2 209.5,354.9 
		217.1,354.9 217.4,348.2 235,347.8 	"/>
	<polygon id="LA" points="394.3,358.4 393.9,357.8 393.9,357.8 395.5,354.2 395.7,351 398,346 399.1,341.9 399.2,340.1 
		398.4,333.1 367.2,333.3 367.2,343.4 369.6,350.7 371.5,354.1 371.7,359.3 369.4,372.1 371.5,373.1 373.8,373.3 379,373.1 
		386.5,375.1 391.7,373 391.7,373 392.2,373.4 392.2,373.4 392.6,375.4 393,375.9 396,376.1 396,376.1 396.4,376.6 396.3,378.2 
		396.4,378.8 402.8,380.4 405.9,379.3 405.9,379.3 407.2,380.3 408.6,379.7 409.4,376.8 410,376.5 411.3,377.2 411.3,377.2 
		412,379.3 415.6,380.6 415.6,380.6 416.3,381.4 421,380.7 415.7,377.5 415,373.7 415,373.7 416.4,369.3 411.8,369 406.4,369.6 
		406.3,366.7 406.3,366.7 408.7,366.7 411.8,365.9 412.2,365.5 412.2,365.5 414.9,365.2 412.5,358.3 	"/>
	<g id="MI">
		<polygon points="427.3,152 431.9,154.1 434,156.3 434,156.3 435,162.1 436,164.6 437.1,165.7 440.8,160 442.4,155.3 
			443,155.1 444,155.8 445.2,156.3 445.7,155.1 446.6,154.3 447.1,156.8 448.8,155.8 453.7,151.9 459.9,151.6 464.4,152.4 
			467.4,154 469.6,152.3 475,152.4 475,151.8 473.3,149.9 473.3,149.9 473.5,148.4 472.7,145.9 470.1,144.8 466.2,144.6 
			465.7,144.2 465.1,141.9 460.7,141.3 459.7,141.1 456.2,141.9 450.2,141.9 447.5,143.8 447.5,143.8 446.9,143.6 446.1,143.1 
			445.5,143.1 444.1,144.1 444.1,144.1 443.1,143.5 441.6,143.2 435.7,139 428.8,136.3 428.1,136.4 427.5,135.7 427.5,135.7 
			431.7,131.5 431.9,130.9 432,128.6 431.5,128.4 418.2,138.1 418.2,138.1 413.6,139 410.9,141.2 415.3,147.1 426.7,151.9 		"/>
		<polygon points="474.2,214.9 480.7,214.9 481,213 482.4,210 484.5,208.2 485.1,207.4 485.9,205 487.5,202.5 
			490,201.2 491.3,197.5 486.7,183.2 484.7,182.1 478.2,188.6 477.6,188.5 477.6,188.5 477.9,186.2 482.5,176.8 483.1,168.1 
			479,162 476.1,159.8 468.1,157.5 466,156.6 464.8,158.7 462.8,163.8 462.8,163.8 461.4,164.6 461.1,165.2 461,169.9 460.4,171.3 
			460,171.6 459.5,171.6 459.5,171.6 459.4,170.3 458.5,169.9 457.2,171.4 457.2,171.4 457,169.8 457,169.8 457.2,168.8 458,166.9 
			458.2,166 457.4,166.1 455.8,168.4 453.2,171.5 450.3,179.6 448.5,189 449.8,194.2 450.1,205.7 450.1,205.7 446.9,212.3 
			445.6,213.9 466.5,214.2 466.5,215 		"/>
	</g>
	<polygon id="TN" points="416.8,287.2 413.7,294.4 413.7,294.4 413.7,294.4 412.1,299.2 410.2,301.1 409.3,303.4 
		408.4,307.7 472.9,307.6 477.9,302.2 484.8,299.2 489,295.2 492.4,294.1 495.1,292.6 497.4,289.6 498,287.8 	"/>
	<polygon id="MT" points="136,120.1 137.2,121.3 138.9,126.1 149.4,139.1 152,141.5 152,141.5 153.8,147.8 153.8,147.8 
		153.8,147.8 153.4,151.3 153.6,151.8 153.6,151.8 153.6,151.8 153.6,151.8 153.1,155.2 153.5,155.7 158.1,157.1 158.1,157.1 
		162.7,166.6 163.7,170.5 167.8,172 170.5,173.6 181.4,173.4 186.2,170.3 189.1,170.2 189.1,168.3 262.8,168.2 262.9,153 262.9,153 
		263,104.9 135.1,104.3 135.9,120 	"/>
	<polygon id="AR" points="409.3,303.4 410.2,301.1 412.1,299.2 413.7,294.4 407.5,294.2 409.4,287.5 361.8,287.4 
		364.1,295 364.1,295 364.1,295 364.3,325.5 367.1,327 367.1,327 367.2,333.3 398.4,333.1 399.1,331.3 399.3,328.7 399,324.5 
		403.4,314.8 408.4,307.7 	"/>
	<polygon id="MN" points="340.5,153.4 340.5,153.4 340.5,153.4 340.5,153.4 340.5,153.4 339.9,156.2 339.9,156.2 
		340.8,160.1 343.3,190.1 399.2,190.2 398.8,187.2 395.8,183.1 392.1,181.1 382.3,170.9 381.6,162.4 383.3,152.4 383.3,152.4 
		386.9,147.4 387.4,142 388.7,139.8 388.7,139.8 388.7,139.8 388.7,139.8 388.8,139.7 401.7,128.5 410.8,123 414.4,121.7 
		415.8,120.3 406,118.1 402.6,115.4 399.9,113.6 396.6,111.9 381.8,109.8 368,105.8 364.5,105.8 360.7,105.5 358.1,99.7 355.4,99.3 
		355,105.1 355,105.1 335.2,105.2 336.1,116.9 338.9,131.2 340.6,149.2 340.5,153.4 	"/>
	<polygon id="ND" points="297.6,153.1 340.5,153.4 340.6,149.2 338.9,131.2 336.1,116.9 335.2,105.2 263,104.9 
		262.9,153 	"/>
	<polygon id="IN" points="438.6,216.7 438.6,216.7 438.5,245 436.3,253.9 435.5,260.6 432.9,265.2 432.3,268.7 
		436.4,266.9 436.4,266.9 438.5,268.4 442.4,267 444,268.5 444.6,268.7 446.7,266.1 446.7,266.1 449.3,266.7 456.6,262.8 
		458.9,259.3 460.6,256.9 463.3,258.3 463.9,258 464.9,254.5 464.6,254.2 464.9,252.4 464.9,252.4 466.4,251.3 466.5,251.3 
		466.5,215 466.5,215 466.5,214.2 466.5,214.2 445.6,213.9 443.6,215.6 438.6,216.7 	"/>
	<polygon id="WV" points="524.3,244.3 524.3,244.1 512.8,244 512.8,229.2 509.4,233.8 508.5,241.2 506.8,245 
		504.5,248.6 504.5,248.6 500.9,250 500.4,250.4 497.9,255.5 497.9,255.5 497.4,255.8 494.5,254.9 492.2,258.9 488.8,262.1 
		492.3,268.5 492.6,270.5 493.4,272.4 493.6,273.9 493.6,274 493.6,274 493.6,274 493.6,274 493.6,274 497.9,276.8 500.9,277.3 
		504.5,277.1 510.4,274.5 513.5,272.5 514.6,268.1 514.6,268.1 517.3,265.2 521.5,259.4 521.6,259.4 524.1,261.1 528.2,257.1 
		532.1,254.4 534.9,249.4 539.1,252.1 540.6,248.6 537.2,247.2 531.3,247.6 524.2,250.1 	"/>
	<polygon id="DC" points="584.2,270.1 595.8,281.8 584.4,293.3 584.4,289.3 583.7,289 583.7,287.8 584.1,287.6 
		584.6,288.2 584.9,285.4 584.2,284.2 583.2,284.3 583.2,283.6 582.3,282.5 581.8,282.5 581.8,281 579.7,281.2 578.3,279.5 
		578.5,279 577.3,277.9 577.3,277 	"/>
	<g id="HI">
		<polygon points="172.6,405.9 168.7,408.4 170.9,412.1 175.6,412.7 176.3,411.3 		"/>
		<polygon points="201.7,427.2 201.5,431.9 199.1,435.2 201,444.5 203.9,447 209.5,441.8 213.6,440.7 215.2,437.4 
			213.5,435.2 212.4,435 212,432.6 		"/>
		<polygon points="191.5,416 193,417.7 196.2,417.4 199.9,419.9 198.9,421.8 194.3,422.6 190.5,418.3 		"/>
		<polygon points="191.4,422.5 190.1,423.4 191.3,423.8 192.4,423.6 		"/>
		<polygon points="185,417.9 187.2,417.6 188.8,419.3 187.2,420.4 		"/>
		<polygon points="182.5,413.3 189.7,414.1 188.8,415.4 181.9,415.2 		"/>
		<polygon points="152.6,398.2 149.4,399 147.6,401.3 149.6,403.2 152.6,403.7 154.5,399.6 		"/>
		<polygon points="143.1,401.7 141.1,404.2 141.7,405.1 144,402.1 		"/>
		<path d="M173.3,407l3.1,4.3l-0.7,1.5l-4.8-0.6l-2.1-3.7l3.9-2.5L173.3,407L173.3,407z M201.7,427.2l-0.2,4.7l-2.4,3.3
			l1.9,9.3l2.8,2.5l5.7-5.2l4.1-1.1l1.5-3.3l-1.6-2.2l-1.2-0.2l-0.4-2.4L201.7,427.2L201.7,427.2z M190.5,418.3l3.8,4.2l4.5-0.8
			l1.1-1.8l-3.7-2.5l-3.2,0.3l-1.5-1.6L190.5,418.3L190.5,418.3z M191.4,422.5l-1.3,0.9l1.2,0.4l1.1-0.2L191.4,422.5L191.4,422.5z
			 M186.2,419.4l1,1l1.6-1.1l-1.5-1.7l-2.2,0.3L186.2,419.4L186.2,419.4z M181.9,415.2l6.9,0.2l0.9-1.3l-7.2-0.8L181.9,415.2
			L181.9,415.2z M152.6,398.2l-3.2,0.8l-1.8,2.3l2,1.9l2.9,0.5l1.9-4.1L152.6,398.2L152.6,398.2z M143.1,401.7l-2,2.5l0.6,0.9
			l2.2-3.1L143.1,401.7L143.1,401.7z"/>
		<polygon points="173.3,407 176.3,411.3 175.6,412.7 170.9,412.1 168.7,408.4 172.6,405.9 		"/>
		<polygon points="201.7,427.2 201.5,431.9 199.1,435.2 201,444.5 203.9,447 209.5,441.8 213.6,440.7 215.2,437.4 
			213.5,435.2 212.4,435 212,432.6 		"/>
		<polygon points="190.5,418.3 194.3,422.6 198.9,421.8 199.9,419.9 196.2,417.4 193,417.7 191.5,416 		"/>
		<polygon points="191.4,422.5 190.1,423.4 191.3,423.8 192.4,423.6 		"/>
		<polygon points="186.2,419.4 187.2,420.4 188.8,419.3 187.2,417.6 185,417.9 		"/>
		<polygon points="181.9,415.2 188.8,415.4 189.7,414.1 182.5,413.3 		"/>
		<polygon points="152.6,398.2 149.4,399 147.6,401.3 149.6,403.2 152.6,403.7 154.5,399.6 		"/>
		<polygon points="143.1,401.7 141.1,404.2 141.7,405.1 144,402.1 		"/>
	</g>
	<g id="AK">
		<polygon points="84.2,398.5 80.8,402 81.2,403.2 81.8,403.7 84.4,401.7 84.2,400.4 83.8,400.2 85,399.6 84.2,398.5 		
			"/>
		<polygon points="63.6,393.2 61.7,393.8 64.4,394.7 64.3,393.6 63.6,393.2 		"/>
		<polygon points="56.5,383.2 57.3,382.7 59.7,384 59.8,384.3 58.6,384.8 58.5,385.2 56.2,383.6 55.7,384 55.1,383.5 
			55.2,382.4 		"/>
		<polygon points="62.9,411 62.2,411.3 62.4,411.6 61.2,412.6 61.2,412.8 63.7,411.4 63.4,411 63.2,411.2 63,411.2 
			62.9,411 		"/>
		<polygon points="60.8,412.1 59.2,413.9 61.1,412.5 61.1,412.2 60.8,412.1 		"/>
		<polygon points="53.6,415.7 50,415.8 51.5,415.3 51.6,414.9 52,415 51.8,415.3 		"/>
		<polygon points="48.2,416.1 48.7,416.4 47.7,416.8 47.9,416 48.2,415.9 48.2,416.1 		"/>
		<polygon points="103.2,360.2 103.2,393.3 104.7,394.1 105.9,393.5 108.5,397 110.9,395.1 119.6,408.4 118.7,409 
			116,405 115.7,404.3 114,404.4 113.7,405.6 113.3,403.6 113.1,403 112.4,399.1 112.1,399.7 110.6,397.4 110.7,399.2 105,395.9 
			105.5,394.9 94.8,393.6 94.8,393 95.7,392.5 94.6,391.6 92.7,392.1 92.5,392.7 93.1,393 93,394.2 87.4,396.9 86.8,396.5 
			88.2,395.1 87,395.4 89.2,391.3 91.1,391.9 89.8,390.4 87,391.9 87.2,392.3 83.8,397 84.8,397.6 77.2,404.8 77.5,405.2 
			72.7,407.5 72.8,406.9 67.6,409.8 73.2,405.8 73.8,406 76.4,403.5 76.8,403.6 79.4,397.7 77.4,398.5 76.7,398 76.8,398.9 
			76.3,399.2 73.9,397.6 73.3,398.7 71.8,398.6 71.3,394.1 69.5,395.1 66.7,392.8 67.3,392.2 65.9,390.2 68.2,384.2 69.9,384.8 
			71.2,383.5 71,383.2 71.2,382.9 71.9,383.5 73.5,382.9 73.1,380.4 72.6,380.2 73.4,379.7 73.5,378.9 65.4,379.5 64.7,377.7 
			63.3,376.5 63,375.5 69.4,372.4 69.4,374.2 72.1,374.4 72.4,373.6 73,373.7 72.9,373.2 71.8,373.2 70.9,371.1 71.4,371.1 
			71.8,371.6 72.3,370.9 65,365.3 79.7,352.5 81.2,353.2 82.1,353.4 		"/>
		<polygon points="84.2,398.5 80.8,402 81.2,403.2 81.8,403.7 84.4,401.7 84.2,400.4 83.8,400.2 85,399.6 84.2,398.5 		
			"/>
		<path d="M113.1,404.9"/>
		<polygon points="63.6,393.2 61.7,393.8 64.4,394.7 64.3,393.6 63.6,393.2 		"/>
		<polygon points="56.4,383.2 55.2,382.4 55.1,383.5 55.7,384 56.2,383.6 58.5,385.2 58.6,384.8 59.8,384.3 59.7,384 
			57.3,382.7 56.4,383.2 		"/>
		<polygon points="62.9,411 62.2,411.3 62.4,411.6 61.2,412.6 61.2,412.8 63.7,411.4 63.4,411 63.2,411.2 63,411.2 
			62.9,411 		"/>
		<polygon points="60.8,412.1 59.2,413.9 61.1,412.5 61.1,412.2 60.8,412.1 		"/>
		<polygon points="52.9,415.5 51.9,415.4 51.8,415.3 52,415 51.6,414.9 51.5,415.3 50,415.8 53.6,415.7 52.9,415.5 		
			"/>
		<polygon points="48.2,415.9 47.6,416.5 47.7,416.8 48.7,416.4 48.2,416.1 48.2,415.9 		"/>
	</g>
	<path id="NY" d="M596.5,226.2c0,0,2.2-1.3,1.6-1.2c0,0,0,0,0,0l-0.3-0.5l-2.5,1.1l-3.3,0.7l-2.6,0.7l-5.2,0.7l1.7-2.3
		l-0.6-0.9l2.2-1.7l-0.5-1.3l0.7-4.2l-0.2-2.7l0.3-4.2l1.2-6.1l0.9-3.1l-0.1-3.9l-0.2-1.9l-1.8-5.1l0.1-1.8l-0.8-4.4l0.2-2.5
		l-0.2-4.4l0.9-3.4l0.3-5.8h-11.4l-1.3-0.4l-8.2,3.4l-7.1,4.6l-1.7,1.8l0,0l-0.6,2.2l-1.4,2.2l0,2.7l-0.8,4.6l0,0l-10.7,3.3
		l-8.8,0.4l-6.8,1.5l-1.7,1.5l0.7,1.4l0,1.9l0.1,1l-4.5,5.1l-2.9,1.5l-0.7,0.2l0,3.6l0.3,0.3l45.9,0.4l0,0l5.7,8.8l0.7,0.7l9,5.5
		l0.3,2.5l-1.5,1.9l-0.2,1.4l1.5,0.2l2.3-0.5l2.4-0.5l2.5-1l3.7-1.2l1.3-0.2l2.3-0.7l3.5-1.5l-0.5-0.5L596.5,226.2z"/>
</g>
<g id="Labels">
	<text transform="matrix(1 0 0 1 89.216 132.2062)">WA</text>
	<text transform="matrix(1 0 0 1 199.8825 140.2953)">MT</text>
	<text transform="matrix(1 0 0 1 297.3973 133.8941)">ND</text>
	<text transform="matrix(1 0 0 1 359.1351 153.9495)">MN</text>
	<text transform="matrix(1 0 0 1 409.0261 176.8291)">WI</text>
	<text transform="matrix(1 0 0 1 465.0436 198.1246)">MI</text>
	<text transform="matrix(1 0 0 1 85.9252 187.108)">OR</text>
	<text transform="matrix(1 0 0 1 145.3534 184.4576)">ID</text>
	<text transform="matrix(1 0 0 1 224.2388 199.511)">WY</text>
	<text transform="matrix(1 0 0 1 299.0579 178.1019)">SD</text>
	<text transform="matrix(1 0 0 1 372.1003 214.0417)">IA</text>
	<text transform="matrix(1 0 0 1 417.8429 240.257)">IL</text>
	<text transform="matrix(1 0 0 1 450.1027 241.9416)">IN</text>
	<text transform="matrix(1 0 0 1 485.0999 238.2906)">OH</text>
	<text transform="matrix(1 0 0 1 539.5444 229.5457)">PA</text>
	<text transform="matrix(1 0 0 1 562.6449 199.7993)">NY</text>
	<text transform="matrix(1 0 0 1 629.4976 163.3233)">ME</text>
	<text transform="matrix(1 0 0 1 597.3636 207.6348)">MA</text>
	<text transform="matrix(1 0 0 1 602.2083 195.4141)">NH</text>
	<text transform="matrix(1 0 0 1 592.4698 179.5701)">VT</text>
	<text transform="matrix(1 0 0 1 593.3364 217.7366)">CT</text>
	<text transform="matrix(1 0 0 1 604.1115 216.898)">RI</text>
	<text transform="matrix(1 0 0 1 572.0225 240.0774)">NJ</text>
	<text transform="matrix(1 0 0 1 563.2051 259.8832)">DE</text>
	<text transform="matrix(1 0 0 1 583.3598 282.3226)">DC</text>
	<text transform="matrix(1 0 0 1 545.1656 251.8067)">MD</text>
	<text transform="matrix(1 0 0 1 502.8504 263.8449)">WV</text>
	<text transform="matrix(1 0 0 1 526.709 276.5515)">VA</text>
	<text transform="matrix(1 0 0 1 522.6556 302.3993)">NC</text>
	<text transform="matrix(1 0 0 1 507.7108 324.6477)">SC</text>
	<text transform="matrix(1 0 0 1 457.2097 276.2465)">KY</text>
	<text transform="matrix(1 0 0 1 446.0511 299.1765)">TN</text>
	<text transform="matrix(1 0 0 1 479.5208 341.8901)">GA</text>
	<text transform="matrix(1 0 0 1 442.3019 338.9756)">AL</text>
	<text transform="matrix(1 0 0 1 410.4021 339.6517)">MS</text>
	<text transform="matrix(1 0 0 1 497.3836 393.3482)">FL</text>
	<text transform="matrix(1 0 0 1 380.2767 360.8501)">LA</text>
	<text transform="matrix(1 0 0 1 380.6078 311.9229)">AR</text>
	<text transform="matrix(1 0 0 1 381.8108 264.6292)">MO</text>
	<text transform="matrix(1 0 0 1 306.4828 221.6089)">NE</text>
	<text transform="matrix(1 0 0 1 320.4012 262.2712)">KS</text>
	<text transform="matrix(1 0 0 1 331.7621 302.1717)">OK</text>
	<text transform="matrix(1 0 0 1 313.5882 354.293)">TX</text>
	<text transform="matrix(1 0 0 1 245.1094 255.1775)">CO</text>
	<text transform="matrix(1 0 0 1 239.0521 314.9105)">NM</text>
	<text transform="matrix(1 0 0 1 180.9315 251.726)">UT</text>
	<text transform="matrix(1 0 0 1 180.5686 316.9298)">AZ</text>
	<text transform="matrix(1 0 0 1 126.1273 244.677)">NV</text>
	<text transform="matrix(1 0 0 1 88.6586 277.2943)">CA</text>
	<text transform="matrix(1 0 0 1 84.7946 379.3138)">AK</text>
	<text transform="matrix(1 0 0 1 203.9125 438.3528)">HI</text>
</g>
</svg>
