<svg xmlns="http://www.w3.org/2000/svg" width="45" height="45" viewBox="0 0 45 45">
  <g id="Us_Button" data-name="Us Button" transform="translate(-743 -409)">
    <circle id="Ellipse_378" data-name="Ellipse 378" cx="20" cy="20" r="20" transform="translate(746 412)" fill="#fff"/>
    <g id="Us_button-2" data-name="Us button" transform="translate(743 409)">
      <path id="Path_14057" data-name="Path 14057" d="M22.5,0A22.5,22.5,0,1,0,45,22.5,22.5,22.5,0,0,0,22.5,0ZM37.757,16.611c.135.182.382.512.63.844-.019.1,0,.257-.062.3-1.3.838-1.5,2.356-2.193,3.567-.116.2.035.6.145.879a2.565,2.565,0,0,1-.215,2.124c-.043.094-.158.152-.227.237-.573.7-1.145,1.409-1.746,2.15v1.14c.937,1.4,1.9,2.667,1.613,4.507a1.89,1.89,0,0,1-2.355-1.124,10.658,10.658,0,0,0-1.381-1.782l-2.771.457c-.025.158-.075.455-.141.867-.849,0-1.718-.023-2.585,0A3.161,3.161,0,0,0,23.82,31.97v1.618c-.456.727-1.174.43-1.862.5-.729-.875-1.48-1.778-2.238-2.691-.516.623-1.151.271-1.733.378-.535-.689-1.056-1.36-1.552-2-.183,0-.293,0-.4,0a9.26,9.26,0,0,1-4.363-.651c-.417-.186-.907-.2-1.343-.352-.383-.134-.942-.264-1.064-.549-.365-.854-1.17-1.172-1.784-1.7-.88-.766-.835-1.874-1.17-2.833A13.593,13.593,0,0,1,5.962,19.2c-.005-.689.459-1.273.36-2.018-.086-.66.4-1.278.345-2.013-.027-.387.409-.806.616-1.175.646-.256,1.354.142,1.865-.384.553.551,1.29.072,1.858.31a10,10,0,0,0,2.558.562,15.881,15.881,0,0,0,3.826.426A20.251,20.251,0,0,1,20.2,14.9a3.57,3.57,0,0,0,1.837-.368c.182-.1.388-.32.532-.283,1.158.291,2.492.043,3.465.777a2.4,2.4,0,0,0,1.616.529c.55-.006,1.1,0,1.6,0,1.333.978,1.4,2.535,1.972,4.028.321-.327.742-.564.849-.9.218-.684.456-1.226,1.282-1.244.081,0,.167-.139.234-.225a9.5,9.5,0,0,1,1.19-1.477,8.653,8.653,0,0,1,1.637-.877v-1.9h1.194q.663.663,1.4,1.4C39.321,15.481,38.035,15.644,37.757,16.611Z" fill="#403f3f"/>
    </g>
  </g>
</svg>